<?xml version="1.0" encoding="UTF-8" standalone="no"?>
<svg
   xmlns:dc="http://purl.org/dc/elements/1.1/"
   xmlns:cc="http://creativecommons.org/ns#"
   xmlns:rdf="http://www.w3.org/1999/02/22-rdf-syntax-ns#"
   xmlns:svg="http://www.w3.org/2000/svg"
   xmlns="http://www.w3.org/2000/svg"
   xmlns:sodipodi="http://sodipodi.sourceforge.net/DTD/sodipodi-0.dtd"
   xmlns:inkscape="http://www.inkscape.org/namespaces/inkscape"
   inkscape:version="1.0 (4035a4fb49, 2020-05-01)"
   inkscape:export-ydpi="300"
   inkscape:export-xdpi="300"
   inkscape:export-filename="C:\Users\Leonardo\Documents\GitHub\teste-mapa-svg\mapa-poli-teste\poli-teste.png"
   sodipodi:docname="poli-teste.svg"
   xml:space="preserve"
   style="enable-background:new 0 0 768 500;"
   viewBox="0 0 768 500"
   y="0px"
   x="0px"
   id="Camada_1"
   version="1.1"><metadata
   id="metadata137"><rdf:RDF><cc:Work
       rdf:about=""><dc:format>image/svg+xml</dc:format><dc:type
         rdf:resource="http://purl.org/dc/dcmitype/StillImage" /></cc:Work></rdf:RDF></metadata><defs
   id="defs135" /><sodipodi:namedview
   inkscape:current-layer="Camada_1"
   inkscape:window-maximized="1"
   inkscape:window-y="-8"
   inkscape:window-x="-8"
   inkscape:cy="267.33478"
   inkscape:cx="269.99063"
   inkscape:zoom="1.47"
   showgrid="false"
   id="namedview133"
   inkscape:window-height="1017"
   inkscape:window-width="1920"
   inkscape:pageshadow="2"
   inkscape:pageopacity="0"
   guidetolerance="10"
   gridtolerance="10"
   objecttolerance="10"
   borderopacity="1"
   bordercolor="#666666"
   pagecolor="#ffffff" />
<style
   id="style2"
   type="text/css">
	.st0{fill:#090808;}
	.st1{fill:#767676;}
	.st2{fill:#C6C6C6;}
	.st3{fill:#FEFEFE;}
</style>
<path
   id="path4"
   d="M386.4,330c-0.1-1.4-0.1-2.7-0.2-4.6c-4,2.3-7.7,4.4-11.5,6.5c-2.5,1.4-5,2.8-7.4,4.2  c-3.1,1.9-6.1,4.1-10.1,3.4c-3.9-4.4-9.6-6.3-14.3-9.5c0-2.9-0.1-5.7-0.1-8.6c0.1-2.8,1.4-5.1,3.8-6.5c7.2-4.3,14.5-8.4,22.2-12.9  c-1.3-0.6-2.2-1.1-3.2-1.6c-2.7-3.5-7.1-4.5-10.3-7.3c-0.1-1-0.1-2-0.2-3.6c-4.5,2.5-8.6,4.9-12.8,7.2c-1.5,0.9-3.1,1.7-4.5,2.7  c-3.2,2.2-6.5,3.8-10.5,3.5c-3.6-4.7-9.5-6.1-14-9.5c0-2.9,0-5.7,0-8.6c0-0.6,0.2-1.3,0-1.8c-0.5-1.4,3-1,1.3-2.6  c-1.3-1.1-2.6,0.6-3.4,1.3c-2.4,2-5.2,1.6-7.9,1.8c-2.9-3.8-7.3-5.2-11.3-7.4c0-1.2,0-2.5,0-4.5c-5.5,3.2-10.6,6.1-15.7,9  c-3,1.7-6,3.5-9,5.2c-4.5,2.5-9.1,2.3-13.6-0.2c-3.2-1.8-6.4-3.6-10.1-5.7c2.2-0.8,2.3-2.2,2.2-3.9c-0.1-3.8-0.6-7.8,1.2-11.4  c0.4-0.8,1.4-1.3,2.2-1.8c8-4.7,16.1-9.3,24.2-14c1-0.6,3.5-0.8,1.2-2.9c-2.9-4.2-8.2-5-11.6-8.4c-0.1-1.1-0.1-2.2-0.3-3.9  c-6.6,3.8-13.1,7-19.1,11c-6.9,4.6-13.2,4.6-19.9-0.1c-3-2-7.3-2.6-5.2-8.3c1.1-2.9,0.2-6.6,0.2-10.4c-3.2,2-6.2,4-10,3.3  c-2.8-4-7.8-5-11.3-8.1c-0.1-1.2-0.1-2.4-0.2-4.1c-5,2.9-9.9,5.4-14.4,8.3c-4.1,2.7-8.2,1.6-12.1,0.1c-3.7-1.5-7.1-4-11.1-6.2  c1.4-0.9,2.1-1.9,2.2-3.5c0.1-3.7-0.9-7.6,1.3-11.3c0.5-0.8,1-1.5,1.6-1.8c4.8-2.9,9.7-5.6,14.4-8.5c0.7-0.4,2.7-0.5,1.8-2.1  c-0.9-1.7-1.2,1.2-2.1,0.5c-0.3-0.2-0.6-0.5-0.8-0.7c-3-3.4-7.4-4.9-11-7.4c-0.2-1.4,0.3-3-0.5-4.8c-6.1,3.5-12.1,7.1-18.1,10.6  c-3.1,1.8-6.2,4-10.1,3.2c-3.9-4.4-9.3-6.3-14.2-8.9c0-3,0-6-0.1-9c-0.1-3.1,1.4-5.3,3.9-6.8c41-23.7,82-47.4,123.1-71  c2.2-1.3,4.7-1.3,7,0c3,1.7,6.1,3.4,9,5.2c2.6,1.5,4,3.7,4,6.8c0,1.9,0,3.7,0,5.6c0,0.8-2.9,5.6-3.6,6c-3.1,1.8-6.2,3.7-9.6,5.7  c8,3.6,6.4,10.5,6.4,16.8c-0.5,0.1-1.1,0.3-1.6,0.4c0.1,0.3,0.1,0.8,0.4,1c0.8,0.5,1.3,0,1.8-0.6c4.6-2.5,9.2-4.9,13.6-7.7  c3.6-2.3,6.9-2.3,10.5,0.1c2.4,1.6,5,2.8,7.4,4.3c2.5,1.6,4,3.8,3.7,6.8c-0.3,3.1,1.1,6.4-1.4,9.5c-0.5,0.7-1.2,1.5-1.9,2  c-2.3,1.7-5.1,2.6-7.4,4.8c8,3.7,5,10.8,5.5,17.4c5.7-3.2,11.2-6.4,16.7-9.5c11.5-6.6,23-13.3,34.6-19.9c2.2-1.3,4.7-1.2,7,0.1  c2.8,1.6,5.6,3.2,8.4,4.8c3,1.7,4.7,4.2,4.5,7.8c-0.1,3.2,0.5,6.5-1.6,9.5c-0.6,0.9-1.5,1.3-2.2,1.8c-2.4,1.5-4.9,2.8-7.5,4.3  c5.1,3.5,7.5,10.4,5.7,15.8c-0.3,0.9-2.7,0.7-1.2,2.2c1,1,2.1-0.4,3-0.9c3.4-1.8,6.7-3.8,10-5.8c2.7-1.6,5.4-1.8,8.1-0.1  c2.7,1.6,5.4,3.1,8.1,4.6c3,1.6,4.4,4.3,4.2,7.5c-0.2,3,0.7,6-1.2,9.2c-1.8,2.9-5.3,3-7.2,5.6c7.3,3.7,5.3,10.6,5.4,17.3  c5.3-3,10.3-5.8,15.3-8.7c11.6-6.7,23.2-13.5,34.8-20.2c2.6-1.5,5.4-1.5,8-0.1c3.2,1.7,6.2,3.6,9.4,5.4c1.8,1.1,2.9,3,3,4.7  c0.3,4,0.7,8.2-1.4,11.9c-0.4,0.8-1.4,1.3-2.3,1.8c-2.9,1.7-5.8,3.3-9.1,5.2c3.2,1.9,5.7,4.3,5.6,7.7c-0.1,3.3,1.7,7-1.7,9.7  c1,0.9,1.6,0,2.3-0.4c5.4-3.1,10.7-6.3,16.2-9.3c2.5-1.3,5.1-1.8,7.8-0.1c2.7,1.7,5.5,3.3,8.4,4.9c3,1.6,4.5,4,4.2,7.3  c-0.2,3,1.1,6.2-1.5,9.1c-0.6,0.6-1,1.7-1.9,2.2c-2.9,1.7-5.8,3.4-8.6,5c0.6,2.3,4.9,1.1,3.9,4.8c-0.1,0.4,1.2,0.2,1.9-0.2  c2.7-1.6,5.4-3,8.1-4.6c3-1.8,5.9-1.7,8.8,0c5.9,3.5,11.7,7.1,17.7,10.3c5,2.7,10.1,5.2,8.4,13.1c9.3-5.4,17.8-10.2,26.2-15.1  c11.3-6.5,22.6-13.1,33.9-19.6c2.8-1.6,5.5-1.5,8.1,0c5,2.8,9.9,5.7,14.9,8.6c2.2,1.3,3.3,3.4,3.3,5.8c0.1,10.9,0.1,21.7,0,32.6  c0,2.3-1.1,4.5-3,5.6c-29.1,16.9-58.3,33.7-87.5,50.6c-1.7,1-3.2,1.6-5.1,1.1c-0.5,0-1-0.1-1.5-0.1l0,0c-3.8-4.6-7-4.1-13.9,2.1  c1.4,0.8,2.7,1.6,4.1,2.5c11.9,6.8,23.7,13.6,35.6,20.4c3.2,1.8,4.7,4.4,4.6,8.1c-0.1,3.2,0,6.5,0,9.7c0,3.1-1.2,5.3-3.9,6.9  c-6.7,3.8-13.4,7.7-20,11.7c-2.3,1.4-4.8,1.5-7.3,1.7c0-1.6-1.5-1.8-2.5-2.4c-18.7-10.8-37.4-21.7-56.2-32.5  c-6.7-3.9-13.5-7.7-20.2-11.6c0-3.2,0.1-6.5,0.1-9.7c0-3.1-0.5-6.2,1.4-9c0.1-1.3,1.9-1.2,2.2-2.6c-9.3-5.9-19.2-10.6-28.3-16.9  c0.7-3.7,0.2-7.4,0.3-11.8c-3.2,1.9-5.8,3.4-8.4,4.9c-2.2,1.3-4.4,1.3-6.7,0.4C394.2,333.7,389.9,332.4,386.4,330z M276.6,246.8  c0.3-0.2,0.6-0.3,0.9-0.5c-0.2-0.2-0.3-0.3-0.5-0.5c-0.3-0.8-0.8-0.7-1.1-0.1C275.5,246.4,275.9,246.7,276.6,246.8z M364.5,249.4  c3.1,0.1,5.1-1.9,7.4-3.6c-2.4-1.5-4.6-2.9-6.8-4.2c0.2-2.8,1.8-2.4,3.2-1.2c3,2.6,5.7,2,8.6-0.1c1.6-1.1,3.4-2,5.1-3  c4.7-2.8,5.9-7,3.5-12.3c0.9-1.1,0.3-1.7-0.7-2.3c-2-1.1-4-2.1-5.8-3.4c-2.4-1.7-4.4-1.6-7-0.1c-13.3,7.9-26.7,15.5-40.1,23.2  c-11.5,6.7-23.1,13.3-34.5,20.1c-0.9,0.5-3.6,0.5-1.8,2.9c-2.5,5.2-1.1,9.4,3.4,12.5c4.5,3.2,8.2,2.9,12.9,0.1  c14.4-8.7,29.1-16.9,43.7-25.3c1.3-0.7,2.4-1.8,4.1-1C362,252.7,363.5,251.5,364.5,249.4z M269.3,188.2c0.4-2.2,1.5-2.8,3.3-1.3  c2.9,2.4,5.6,2.3,8.6,0c2.6-1.9,5.6-3.2,8.3-4.9c0.8-0.5,2.1-0.8,2.1-1.9c-0.1-3.5,1-7.1-0.7-10.5c-2.8-2.7-6.4-4.1-9.7-6.1  c-0.3-0.7-0.5-0.7-0.8,0c-25.6,14.8-51.2,29.5-76.8,44.3c-1.2,0.7-3,1.2-2.9,3.1c-1.3,3.4-1.7,7.4,0,10.1c1.8,2.8,5.7,4.2,9.2,5.4  c2.3,0.8,4-0.8,5.8-1.9c14.7-8.4,29.4-16.9,44-25.4c1.2-0.7,2.3-1.7,3.8-1.2c2.6,0.9,4.2-0.4,5.8-2.1c2.7-0.3,4.6-2.2,6.9-3.5  C274,190.5,271.6,189.4,269.3,188.2z M315,224c2.7-0.2,4.6-2,7.1-3.5c-2.7-1.6-5-3-7.3-4.4c0.8-2.8,2.5-1.7,4-0.8  c1.8,1.1,3.4,2.3,5.8,0.9c10.2-6,20.5-11.9,30.7-17.8c1.1-0.6,2.1-1.4,2-2.9c-0.2-3,0.4-6-0.4-8.9c-1.7-2.8-4.9-3.6-7.4-5.3  c-2-1.4-3.5-1.3-5.7,0c-24.8,14.4-49.7,28.7-74.5,43c-1.3,0.7-2.5,1.5-3.1,3c-0.2,0.4-0.5,0.9-0.6,1.3c-0.9,5.8,0.1,10.4,6.6,13  c3.2,1.3,5.5,1.8,8.6,0c8.2-5,16.6-9.7,24.9-14.5c1.3-0.7,2.5-1.9,4.1-1.2C312.2,227,313.7,225.9,315,224z M398.9,276.8  c0-4,2.3-2,3.5-1.1c2.6,2,4.6,1.6,7.3,0c12.1-7.2,24.2-14.1,36.4-21.1c4-2.3,5.3-7.1,2.9-11.7c0.7-1.5-0.1-2.2-1.3-2.9  c-1.9-1-3.8-1.9-5.5-3.2c-2.3-1.8-4.2-1.5-6.7,0c-25.2,14.7-50.5,29.4-75.9,43.8c-2.3,1.3-1.1,1.8-0.3,2.8c-0.6-0.2-1.2-0.2-1.4,0.6  c-1.4,4.9,0.2,8.8,4.5,11.4c1,0.6,1.9,1.1,2.9,1.7c2.4,1.4,4.7,1.6,7.3-0.1c5.7-3.5,11.6-6.8,17.4-10.1c1.1-0.6,2.1-1.8,3.4-1.2  c2.9,1.3,4.5-0.8,6.5-2.2c2.1-0.4,3.6-1.7,5.7-2.9C403.1,279.3,401,278,398.9,276.8z M208.5,168.7c0.2-2.7,1.6-2.2,3.3-1.2  c1.8,1,3.3,3,6,1.4c13.7-8,27.5-16,41.3-23.9c1.1-0.6,2.2-1.1,2.1-2.7c-0.2-3,0.5-6-0.4-8.9c-1.2-3.5-5.1-3.4-7.4-5.4  c-1.8-1.6-3.6-1.4-5.7-0.2c-25.8,15-51.6,29.9-77.4,44.8c-1.5,0.8-0.5,2.2-0.7,3.3c-1.2,6,0.8,10,6.8,12.5c3,1.3,5.2,1.5,7.9-0.1  c5.3-3.2,10.8-6.2,16.2-9.3c0.9-0.5,1.8-1.5,2.7-1c3,1.6,4.9-0.3,7-1.9c2-0.6,3.7-1.6,5.3-3.1C212.9,171.4,210.7,170,208.5,168.7z   M413.6,317c8.6-5,17.3-9.9,25.9-14.9c12.6-7.3,25.2-14.6,37.9-21.9c3.2-1.9,3.2-2.5,0-4.4c-1.8-1.1-3.7-2-5.5-3.2  c-1.4-0.9-2.3-1-3.9-0.1c-25.1,14.6-50.3,29.1-75.5,43.7c-1.3,0.8-2.6,1.5-2.5,3.3c-1.8,3.3-2,7.5-0.2,9.9c2,2.8,6,4.3,9.6,5.5  c2.3,0.8,3.6-1.3,5.3-2.1c1.8-0.8,3.4-2,5.2-2.9c1.7-0.8,2.2-2.1,2.2-3.9c0-2.6-0.9-5.6,1.9-7.6C414.1,318.3,413.7,317.5,413.6,317z   M165.1,207c-2.3,6.1-1,10,4.3,13c1.9,1.1,3.9,2.2,5.8,3.4c2,1.3,3.9,1.1,5.9-0.1c4-2.4,8-4.6,12-7c2.2-1.3,4.5-2.1,4.5-5.7  c0-1.6,1.6-3.6,3.6-4.6c8.5-4.4,16.5-9.8,24.9-14.3c10.3-5.6,20.4-11.8,30.6-17.7c6.7-3.9,13.4-7.7,20.1-11.6c1.2-0.7,2.3-1.2,4.1-1  c3.5,0.4,7.4,1.4,10.4-1.8c0.5-0.5,1.3-0.7,2-1.1c4.2-2.4,5.6-9,2.8-13.5c-2.6-3.1-6.6-4.1-9.8-6.4c-1.9-1.4-3.5-1.4-5.6-0.1  c-26.9,15.7-54,31.3-81,46.9c-11,6.3-22,12.6-32.9,19C165.8,205.1,163.6,205.1,165.1,207z M389,201.6c0.7-1.4-0.6-1.7-1.4-2.1  c-3-1.8-6.1-3.4-9-5.3c-2-1.3-3.5-1.1-5.4,0.1c-5.1,3.1-10.3,6-15.5,9c-35.5,20.5-70.9,41-106.4,61.4c-1.3,0.8-2.1,1.6-2.2,3.1  c-2.4,5.3-1.1,9.8,3.4,12.4c2,1.1,3.9,2.2,5.8,3.4c2.4,1.5,4.6,1.6,7.3,0c7.7-4.7,15.5-9.1,23.3-13.5c1.8-1,2.6-2.1,2.9-4.2  c0.4-2.1,1.6-4.4,3.9-5.7c7.8-4.4,15.6-8.9,23.4-13.4c11.1-6.4,22.2-12.8,33.3-19.2c6.3-3.6,12.7-7,18.7-10.9c2.1-1.4,5.1-1.5,5.9-1  c5,3.1,7.5-1.7,11-2.9c0.9-0.3,1.2-1.2,1.2-2.1C389.3,207.6,390,204.5,389,201.6z M486.6,253.4c-3.4-3.8-8.3-5.3-12.4-8  c-1.1-0.7-2.1,0.1-3.1,0.6c-41.5,24-83,48-124.6,72c-2,3.5-0.9,7.2-0.7,10.8c0.1,2.3,3.1,2.5,4.8,3.7c1.9,1.2,3.8,2.4,5.8,3.5  c1.8,1,3.6,1.4,5.6,0.2c7.5-4.4,15.1-8.7,22.7-13c1.1-0.6,1.6-1.3,1.7-2.6c0.2-2.9,1.8-5,4.4-6.4c6.2-3.5,12.4-6.9,18.5-10.4  c6-3.5,11.9-7.2,18.1-10.4c6.1-3.2,11.4-7.4,17.5-10.5c6.6-3.4,13-7.3,19.4-11.2c3.1-1.8,6-2.8,9.5-1.1c1.6,0.8,12.7-5.7,13.2-7.4  c0.1-0.2,0.1-0.5,0.1-0.7C486.8,259.4,487.4,256.4,486.6,253.4z M316.5,282.8c-1.4,3-0.4,6.1-0.7,9.2c-0.1,1.1,0.8,1.5,1.5,1.9  c3.1,1.8,6.3,3.6,9.4,5.4c1.7,1,3.4,1.3,5.3,0.2c7-4.1,14-8.1,21-12.2c1.2-0.7,1.8-1.4,1.9-2.9c0.2-3,1.7-5.2,4.3-6.6  c9.5-5.4,19-10.9,28.5-16.3c9.5-5.5,19-10.9,28.5-16.4c6.3-3.6,12.5-7.2,18.7-10.9c2.2-1.3,4.6-1.2,6.7-0.4c1.9,0.7,3.2,0.7,4.9-0.3  c1.8-1.2,3.7-2.1,5.5-3.2c5.2-3.1,6.3-6.3,4.2-12.5c0.7-1.8-0.8-2.4-1.9-3c-2.8-1.8-5.8-3.3-8.7-5.2c-1.9-1.2-3.3-0.9-5.1,0.2  c-18.4,10.7-36.8,21.3-55.3,32c-22.6,13.1-45.3,26.1-67.9,39.2C316.8,281.2,315.4,281.4,316.5,282.8z M266.2,105.8  c-2.6-1.5-5.3-2.8-7.7-4.5c-3-2.2-5.4-1.9-8.6-0.1c-35.1,20.4-70.2,40.6-105.3,61c-6,3.5-12.5,6.1-17.6,11  c-1.6,9.2-1.1,10.2,6.5,14.6c1.4,0.8,2.9,1.4,4.2,2.4c1.9,1.4,3.6,1.1,5.5-0.1c6.7-3.9,13.4-7.8,20-11.7c1.8-1,3.4-1.8,3.8-4.5  c0.2-1.8,1.7-3.6,3.8-4.9c5.5-3.3,11.3-6.2,16.7-9.9c1.7-1.2,2.8-3.8,4.7-3.7c2.4,0.1,4-1.1,5.8-2.1c15.9-9.1,31.8-18.3,47.6-27.5  c1.8-1,3.6-2.3,5.7-1.4c3.8,1.6,6.5-0.6,9.5-2.3c1.2-0.7,2.4-1.4,3.6-2.1C268.6,117.5,269.6,109.8,266.2,105.8z M222.1,228.7  c-1.5,3.3-2.1,7.6,0.1,9.7c3.4,3.3,8.2,5.1,12.5,7.3c1.2,0.6,2.4-0.4,3.4-1c7.1-4.1,14.2-8.3,21.4-12.3c1.9-1.1,3.2-2.1,3.5-4.7  c0.2-1.9,1.7-4,3.9-5.2c8.5-4.5,16.6-9.7,24.9-14.4c10.6-5.9,21.1-12.1,31.6-18.2c6.4-3.7,12.7-7.4,19.1-11c1.1-0.6,2-1.2,3.7-0.8  c4.6,1.1,8.9,0.2,12.6-3.1c0.1-0.1,0.2-0.1,0.3-0.2c4.1-2.3,5.4-8.3,2.8-12.8c0.2-1.4-1-1.6-1.8-2.1c-2.8-1.6-5.7-3.1-8.4-4.9  c-1.9-1.2-3.3-1.2-5.3,0c-10.3,6.2-20.8,12.1-31.3,18.1c-30,17.3-60.1,34.6-90.1,52C223.8,225.9,221.8,226.5,222.1,228.7z   M543,394.5c-0.9-0.7-1.7-1.5-2.6-2.1c-24.1-13.9-48.2-27.8-72.3-41.8c-1.6-0.9-2.7-1.1-4.4-0.1c-7,4.2-14.2,8.3-21.3,12.3  c-1.3,0.7-2.3,1.5-2.2,3.1c-1.7,4.2-0.3,8.6-0.8,12.8c-0.2,2.1,0.7,3.1,2.5,4.1c5.9,3.3,11.7,6.7,17.5,10  c18.1,10.5,36.3,21,54.4,31.5c2.4,1.4,4.4,1.6,6.9,0.1c6.8-4.2,13.8-8,20.7-12.1c0.9-0.5,2.4-0.8,2.4-2.1  C543.4,405.1,544.7,399.7,543,394.5z M523.5,290.2c-0.4-1.7-1.7-2.3-3-3.1c-7.4-4.3-14.9-8.5-22.3-12.9c-1.8-1.1-3-0.8-4.6,0.1  c-25.7,14.9-51.5,29.7-77.2,44.6c-0.2,0.2-0.7,0.5-0.7,0.7c-0.7,7.7-0.2,15.5-0.3,23.2c0,1.4,1.1,1.9,2,2.4  c7.5,4.4,15.1,8.7,22.6,13.1c1.5,0.8,2.9,1.3,4.5,0.3c8-4.7,16.1-9.4,24.4-13.5c6.3-3.1,12.1-7.5,18.5-10.4  c6.5-2.9,9.7-6.9,8.3-14.2c-0.9-4.8,1.7-8,5.8-10.3c6.4-3.6,12.7-7.3,19.1-11C524.7,296.9,525.3,294.9,523.5,290.2z M499,315.6  c-0.9,8.1-0.2,16.1-0.4,24.2c-0.1,4.1,0,4.1,3.9,2.3c0.8-0.4,1.7-1.3,2.5,0c1,1.5-0.4,1.9-1.2,2.5c-1.9,1.4-4.4,1.8-5.8,3.9  c-5.3,1.7-9.5,5.2-14.9,8c2.3,1.2,4.1,2,5.8,2.9c6,4.5,11.9,8.8,19.1,2c1.9-1.8,4.2-1.8,6.3,0c2.5,2.1,5,1.8,7.9,0  c6.7-4.1,13.6-7.9,20.4-11.8c21.7-12.5,43.4-25.1,65.2-37.5c1.9-1.1,2.8-2.3,2.7-4.7c-0.1-10-0.1-20-0.1-30c0-1.3,0.4-2.8-1.1-3.7  c0-1.1-0.7-1.5-1.5-1.9c-4.7-2.7-9.5-5.4-14.2-8.3c-2-1.3-3.6-1.2-5.6,0c-25.2,14.6-50.4,29.1-75.6,43.8  C507.9,309.9,502.8,311.8,499,315.6z M469,348.2c3.6,2,6.7,3.7,9.8,5.6c1.2,0.8,2.1,0.8,3.3,0.1c3.9-2.4,7.9-4.6,11.9-6.9  c1-0.6,1.8-1,1.8-2.5c-0.1-3.8,0-7.6,0-11.8C486.6,338.1,478,343.1,469,348.2z M293.1,181.1c-0.1-0.1-0.2-0.2-0.3-0.3  c-0.1,0.2-0.2,0.3-0.2,0.5c0,0.1,0.1,0.2,0.2,0.2C293,181.4,293,181.2,293.1,181.1z"
   class="st0" />
<path
   id="path6"
   d="M463.6,190.5c-0.3-1.5,0.5-3.5-2.7-2.9c-2.2,0.4-4.1-1.9-6.2-3c-2.1-1.1-4-2.4-6.4-3.8c1.5-0.9,2.2-1.9,2.2-3.6  c-0.2-3.8-0.6-7.7,1.2-11.5c0.5-1,1.1-1.2,1.8-1.5c16.7-9.7,33.3-19.3,50-28.9c2.4-1.4,4.9-1.3,7.3,0c2.8,1.6,5.6,3.2,8.4,4.9  c0.9,0.5,2.5,0.5,1.9,2.6c-0.2,0.8,1.9,2,2.1,1.8c2.2-1.9,3.5,0.3,4.9,1.1c13.1,7.4,26.1,15,39.1,22.5c2.9,1.7,4.6,4.1,4.4,7.6  c-0.1,3.2,0.6,6.4-1.5,9.4c-0.5,0.7-1,1.3-1.7,1.7c-17.5,10.1-35.1,20.3-52.6,30.5c-1.9,1.1-3.9,0-5.7,0.9c-0.1-1.6-1.4-1.8-2.5-2.5  c-8.3-4.8-16.5-9.6-24.8-14.4C476.4,197.7,470,194.1,463.6,190.5z M453.9,168.8c-3.2,7,0.9,13.4,9.6,15.1c-1.2-3.4,1.6-5.7,2.2-8.6  c0.5-0.2,1-0.3,1.4-0.5c13.7-7.9,27.4-15.8,41.1-23.8c3.8-2.2,7.9-4.1,11.6-7.1c-3.6-2.1-6.8-3.9-9.9-5.9c-2-1.3-3.5-1.3-5.7-0.1  c-16,9.4-32,18.6-48.1,27.8C454.8,166.5,454,167.3,453.9,168.8z M568,173.4c0.7-0.5,0.5-0.8-0.2-1c-0.8-0.7-1.6-1.6-2.6-2.1  c-13.3-7.8-26.7-15.5-40-23.2c-1.6-0.9-2.8-0.9-4.4,0.1c-6.6,3.9-13.3,7.7-20,11.6c-10.7,6.1-21.4,12.2-32,18.5  c-0.8,0.5-3.2,0.7-1.5,2.8c-2.2,4.6-1.4,9.7,2.1,11.7c13.3,7.7,26.6,15.3,39.8,23c2,1.2,3.7,1.3,5.8,0c16-9.4,32.1-18.6,48.2-27.9  C569.1,183.3,570.3,180.2,568,173.4L568,173.4z"
   class="st0" />
<path
   id="path8"
   d="M436.4,381.7c6.7,3.9,13.5,7.7,20.2,11.6c18.7,10.8,37.5,21.7,56.2,32.5c1,0.6,2.5,0.8,2.5,2.4  c-0.2,0-0.6-0.2-0.7-0.1c-4.6,2.4-8.1-0.3-11.8-2.5c-23.3-13.5-46.5-26.9-69.8-40.3c-0.4-0.2-0.8-0.6-1.5-1  C432.9,383.1,434.5,382.1,436.4,381.7z"
   class="st1" />
<path
   id="path10"
   d="M411.8,343.5c9,6.3,19,11.1,28.3,16.9c-0.3,1.4-2,1.3-2.2,2.6c-0.1,0-0.3-0.1-0.4-0.1  c-5.5,2.8-9.6-0.6-13.9-3.2c-5.9-3.5-11.8-7-17.8-10.3c-2.1-1.2-1.9-1.9,0-2.9C407.8,345.6,409.8,344.6,411.8,343.5z"
   class="st1" />
<path
   id="path12"
   d="M463.6,190.5c6.4,3.6,12.8,7.2,19.2,10.9c8.3,4.8,16.5,9.6,24.8,14.4c1,0.6,2.4,0.9,2.5,2.5  c-2.9,0.5-5.2-0.6-7.6-2.1c-12.9-7.6-25.9-15-38.8-22.5c-0.8-0.5-2.2-0.6-2-1.9C461.7,191,462.7,190.6,463.6,190.5z"
   class="st1" />
<path
   id="path14"
   d="M506.2,369.8c-1.4-0.8-2.7-1.6-4.1-2.5c6.8-6.2,10.1-6.7,13.9-2.1c-3,1-6,1.9-9,2.9  C506.2,368.4,505.8,368.9,506.2,369.8z"
   class="st1" />
<path
   id="path16"
   d="M342.8,330c4.7,3.2,10.4,5.1,14.3,9.5c-2.6,0.6-4.7-0.2-6.9-1.6c-3.2-2-6.5-3.8-10-5.9  C341.3,331.2,342.1,330.6,342.8,330z"
   class="st1" />
<path
   id="path18"
   d="M123.8,184.5c4.9,2.7,10.4,4.6,14.2,8.9c-3.4,1-5.9-1.1-8.5-2.5c-2.1-1.2-4.1-2.4-6.1-3.6  c-0.7-0.4-2-0.6-1.7-1.6C121.9,184.9,122.8,184.4,123.8,184.5z"
   class="st1" />
<path
   id="path20"
   d="M313.1,293.3c4.5,3.4,10.4,4.8,14,9.5c-2.5,0.6-4.5-0.3-6.6-1.6c-3.3-2-6.6-3.9-9.9-5.8  C311,294,312.4,294.1,313.1,293.3z"
   class="st1" />
<path
   id="path22"
   d="M166.9,184.5c3.6,2.5,7.9,4,11,7.4c-1.8,1-3.4,0.8-5.2-0.3c-2.7-1.8-5.5-3.3-8.3-4.9  C164.9,185.4,166,185.1,166.9,184.5z"
   class="st1" />
<path
   id="path24"
   d="M262.9,237.5c3.5,3.4,8.7,4.2,11.6,8.4c-5.9,0.6-9.5-3.8-14.3-6C261.3,239,262.1,238.3,262.9,237.5z"
   class="st1" />
<path
   id="path26"
   d="M197.3,221.2c3.4,3.1,8.5,4.1,11.3,8.1c-5.8,0.9-9.1-4-14.4-5.7C195.5,222.6,196.4,221.9,197.3,221.2z"
   class="st1" />
<path
   id="path28"
   d="M291.8,276c3.9,2.2,8.4,3.6,11.3,7.4c-5.4,1-9-3-12.9-5.4C288.6,277,290.9,276.4,291.8,276z"
   class="st1" />
<path
   id="path30"
   d="M355.2,293.1c3.2,2.8,7.7,3.8,10.3,7.3c-0.9,1.2-2,1.3-3.2,0.5c-3.2-1.9-6.4-3.7-9.8-5.6  C353.5,294.4,354.4,293.7,355.2,293.1z"
   class="st1" />
<path
   id="path32"
   d="M386.4,330c3.5,2.4,7.8,3.7,10.6,7.1c-1.5,0.8-3,0.9-4.5-0.1c-2.1-1.4-4.2-2.6-6.4-3.8  C382.9,331.7,384.2,330.8,386.4,330z"
   class="st1" />
<path
   id="path34"
   d="M516,365.2c0.5,0,1,0.1,1.5,0.1C517,366.5,516.5,366.3,516,365.2z"
   class="st1" />
<path
   id="path36"
   d="M609.4,273.6c1.5,0.9,1.1,2.4,1.1,3.7c0,10-0.1,20,0.1,30c0,2.4-0.8,3.6-2.7,4.7c-21.7,12.5-43.5,25-65.2,37.5  c-6.8,3.9-13.7,7.7-20.4,11.8c-2.8,1.8-5.3,2.1-7.9,0c-2.2-1.8-4.4-1.8-6.3,0c-7.2,6.8-13.2,2.5-19.1-2c4.1-2.7,8.8-4.6,12.7-7.8  c-1.1-1.6-3-1.5-3.6-3.1c1.4-2.1,3.9-2.5,5.8-3.9c0.8-0.6,2.2-1,1.2-2.5c-0.8-1.3-1.7-0.4-2.5,0c-3.9,1.9-4,1.9-3.9-2.3  c0.2-8.1-0.5-16.1,0.4-24.2c5.5,3.1,11.1,6.1,16.6,9.3c2,1.2,3.3,1.3,5.4,0.1c18.8-11,37.8-21.7,56.6-32.6  C588.2,286.2,598.8,279.9,609.4,273.6z"
   class="st1" />
<path
   id="path38"
   d="M416.3,318.9c25.8-14.8,51.5-29.7,77.2-44.6c1.7-1,2.8-1.3,4.6-0.1c7.3,4.4,14.8,8.7,22.3,12.9  c1.3,0.8,2.6,1.4,3,3.1c-4.2,1.1-7.6,3.8-11.2,5.9c-22.4,12.8-44.8,25.7-67.1,38.7c-1.5,0.9-2.5,1-4,0.1c-7.4-4.4-14.9-8.7-22.3-13  C417.5,321.2,416.7,320.3,416.3,318.9z"
   class="st2" />
<path
   id="path40"
   d="M440.1,366c0-1.6,1-2.4,2.2-3.1c7.1-4.1,14.3-8.1,21.3-12.3c1.6-1,2.8-0.8,4.4,0.1c24.1,14,48.2,27.8,72.3,41.8  c1,0.6,1.8,1.4,2.6,2.1c-7.1,5.1-15.1,8.7-22.4,13.4c-2.4,1.5-4.3,1.5-6.8,0c-20.1-11.8-40.3-23.5-60.6-35  C448.9,370.5,445.1,367.2,440.1,366z"
   class="st2" />
<path
   id="path42"
   d="M416.3,318.9c0.3,1.4,1.2,2.3,2.5,3.1c7.5,4.3,14.9,8.6,22.3,13c1.5,0.9,2.6,0.7,4-0.1  c22.3-13,44.7-25.9,67.1-38.7c3.7-2.1,7-4.8,11.2-5.9c1.8,4.7,1.2,6.7-2.8,9c-6.3,3.7-12.7,7.4-19.1,11c-4.1,2.3-6.7,5.5-5.8,10.3  c1.3,7.3-1.8,11.3-8.3,14.2c-6.4,2.9-12.2,7.3-18.5,10.4c-8.4,4.1-16.4,8.8-24.4,13.5c-1.7,1-3.1,0.5-4.5-0.3  c-7.5-4.4-15.1-8.7-22.6-13.1c-0.9-0.6-2-1-2-2.4c0.1-7.7-0.4-15.5,0.3-23.2C415.7,319.3,416.1,319.1,416.3,318.9z"
   class="st1" />
<path
   id="path44"
   d="M609.4,273.6c-10.6,6.3-21.2,12.6-31.8,18.8c-18.9,10.9-37.8,21.7-56.6,32.6c-2.1,1.2-3.4,1.1-5.4-0.1  c-5.4-3.3-11-6.2-16.6-9.3c3.9-3.8,8.9-5.8,13.4-8.4c25.2-14.7,50.4-29.1,75.6-43.8c2.1-1.2,3.6-1.3,5.6,0c4.6,2.9,9.4,5.5,14.2,8.3  C608.6,272.1,609.4,272.5,609.4,273.6z"
   class="st2" />
<path
   id="path46"
   d="M222.1,228.7c-0.3-2.3,1.7-2.8,3-3.5c30-17.4,60-34.7,90.1-52c10.4-6,20.9-12,31.3-18.1c2-1.2,3.5-1.2,5.3,0  c2.7,1.8,5.6,3.3,8.4,4.9c0.8,0.5,2,0.7,1.8,2.1c-41.4,23.9-82.8,47.8-124.1,71.7c-2,1.2-3.5,1-5.5,0C229,232,226.2,229,222.1,228.7  z"
   class="st2" />
<path
   id="path48"
   d="M127,173.1c5.1-4.8,11.7-7.5,17.6-11c35.1-20.4,70.2-40.6,105.3-61c3.2-1.9,5.6-2.2,8.6,0.1  c2.4,1.8,5.1,3,7.7,4.5c0.5,2.4-1.5,2.9-2.9,3.7c-18.8,10.8-37.5,21.7-56.3,32.5c-21.4,12.3-42.7,24.7-64.1,37.1  c-1.8,1-3.3,1.1-5.2,0C134.1,177.1,130.9,174.5,127,173.1z"
   class="st2" />
<path
   id="path50"
   d="M316.5,282.8c-1.1-1.4,0.3-1.6,1-2c22.6-13.1,45.3-26.1,67.9-39.2c18.4-10.6,36.9-21.3,55.3-32  c1.8-1.1,3.2-1.4,5.1-0.2c2.8,1.8,5.8,3.4,8.7,5.2c1,0.7,2.5,1.3,1.9,3c-1.4-0.4-2.4,0.4-3.4,1c-40.2,23.3-80.5,46.5-120.7,69.8  c-1.8,1.1-3.3,1.1-5.1,0C323.6,286.3,320.4,283.7,316.5,282.8z"
   class="st2" />
<path
   id="path52"
   d="M346.5,318c41.5-24,83.1-48,124.6-72c1-0.6,2-1.4,3.1-0.6c4.1,2.7,9,4.2,12.4,8c-1,0.5-2.1,0.8-3,1.4  c-11.8,6.8-23.5,13.6-35.3,20.4c-28.9,16.7-57.9,33.4-86.8,50.1c-0.7,0.4-1.5,1.4-2.3,0.9C354.9,323.5,349.9,322,346.5,318z"
   class="st2" />
<path
   id="path54"
   d="M249.2,267.8c0-1.5,0.8-2.3,2.2-3.1c35.5-20.4,70.9-40.9,106.4-61.4c5.2-3,10.4-5.9,15.5-9  c1.9-1.2,3.4-1.4,5.4-0.1c2.9,1.9,6,3.5,9,5.3c0.8,0.5,2,0.7,1.4,2.1c-0.6,0.2-1.2,0.2-1.8,0.5c-19.8,11.4-39.7,22.9-59.5,34.4  c-21.2,12.3-42.5,24.5-63.7,36.8c-1.5,0.8-2.5,0.9-4,0C256.4,271.4,253.3,268.6,249.2,267.8z"
   class="st2" />
<path
   id="path56"
   d="M165.1,207c-1.5-1.9,0.7-1.9,1.4-2.3c11-6.4,22-12.7,32.9-19c27-15.6,54-31.2,81-46.9c2.2-1.3,3.7-1.3,5.6,0.1  c3.2,2.3,7.2,3.3,9.8,6.4c-0.6,1.2-1.8,1.7-2.9,2.3c-5.5,3.1-11.1,6.3-16.6,9.4c-32,18.5-63.9,36.9-95.8,55.4  c-2.1,1.2-3.4,1.1-5.4,0C171.9,210.6,168.9,207.9,165.1,207z"
   class="st2" />
<path
   id="path58"
   d="M440.1,366c5,1.1,8.8,4.5,13.1,6.9c20.3,11.5,40.4,23.3,60.6,35c2.5,1.5,4.4,1.6,6.8,0  c7.3-4.7,15.3-8.3,22.4-13.4c1.7,5.2,0.4,10.5,0.7,15.8c0.1,1.4-1.5,1.6-2.4,2.1c-6.9,4-13.9,7.9-20.7,12.1  c-2.5,1.5-4.5,1.3-6.9-0.1c-18.1-10.6-36.2-21-54.4-31.5c-5.8-3.4-11.6-6.8-17.5-10c-1.7-1-2.7-2-2.5-4.1  C439.8,374.6,438.4,370.2,440.1,366z"
   class="st1" />
<path
   id="path60"
   d="M127,173.1c3.9,1.4,7.2,4,10.7,6c1.9,1.1,3.4,1,5.2,0c21.3-12.4,42.7-24.7,64.1-37.1  c18.8-10.8,37.5-21.7,56.3-32.5c1.4-0.8,3.4-1.3,2.9-3.7c3.4,4,2.4,11.7-1.9,14.3c-1.2,0.7-2.4,1.4-3.6,2.1  c-2.9,1.7-5.7,3.9-9.5,2.3c-2.1-0.9-3.9,0.4-5.7,1.4c-15.9,9.2-31.7,18.4-47.6,27.5c-1.8,1-3.4,2.2-5.8,2.1c-1.9-0.1-3,2.5-4.7,3.7  c-5.4,3.6-11.1,6.6-16.7,9.9c-2.1,1.3-3.6,3.1-3.8,4.9c-0.3,2.7-2,3.5-3.8,4.5c-6.7,3.9-13.4,7.7-20,11.7c-1.9,1.1-3.6,1.5-5.5,0.1  c-1.3-0.9-2.8-1.6-4.2-2.4C125.9,183.3,125.4,182.3,127,173.1z"
   class="st1" />
<path
   id="path62"
   d="M346.5,318c3.4,4,8.3,5.5,12.6,8.1c0.8,0.5,1.6-0.5,2.3-0.9c28.9-16.7,57.9-33.4,86.8-50.1  c11.8-6.8,23.5-13.6,35.3-20.4c1-0.6,2-0.9,3-1.4c0.8,3,0.2,6,0.4,8.9c0,0.2,0,0.5-0.1,0.7c-0.5,1.7-11.6,8.2-13.2,7.4  c-3.5-1.8-6.5-0.7-9.5,1.1c-6.4,3.8-12.8,7.7-19.4,11.2c-6.1,3.1-11.5,7.4-17.5,10.5c-6.2,3.2-12.1,7-18.1,10.4  c-6.2,3.5-12.4,7-18.5,10.4c-2.5,1.4-4.2,3.4-4.4,6.4c-0.1,1.3-0.6,2-1.7,2.6c-7.6,4.3-15.1,8.6-22.7,13c-2,1.2-3.8,0.8-5.6-0.2  c-1.9-1.1-3.9-2.2-5.8-3.5c-1.7-1.1-4.7-1.3-4.8-3.7C345.6,325.3,344.5,321.5,346.5,318z"
   class="st1" />
<path
   id="path64"
   d="M222.1,228.7c4.1,0.3,6.9,3.2,10.2,5c2,1,3.5,1.2,5.5,0c41.3-24,82.7-47.8,124.1-71.7  c2.6,4.4,1.3,10.5-2.8,12.8c-0.1,0.1-0.2,0.1-0.3,0.2c-3.6,3.3-8,4.2-12.6,3.1c-1.7-0.4-2.6,0.2-3.7,0.8c-6.4,3.7-12.7,7.4-19.1,11  c-10.5,6.1-21,12.2-31.6,18.2c-8.4,4.7-16.4,9.9-24.9,14.4c-2.2,1.2-3.7,3.3-3.9,5.2c-0.3,2.6-1.6,3.6-3.5,4.7  c-7.2,4.1-14.3,8.2-21.4,12.3c-1.1,0.6-2.2,1.6-3.4,1c-4.3-2.3-9.1-4.1-12.5-7.3C220,236.3,220.6,232,222.1,228.7z"
   class="st1" />
<path
   id="path66"
   d="M249.2,267.8c4.1,0.8,7.3,3.6,10.8,5.5c1.6,0.9,2.6,0.8,4,0c21.2-12.3,42.5-24.6,63.7-36.8  c19.8-11.5,39.7-22.9,59.5-34.4c0.5-0.3,1.2-0.3,1.8-0.5c1,2.9,0.3,6,0.5,8.9c0.1,1-0.3,1.8-1.2,2.1c-3.6,1.2-6,6-11,2.9  c-0.8-0.5-3.8-0.4-5.9,1c-6.1,3.9-12.5,7.3-18.7,10.9c-11.1,6.4-22.2,12.8-33.3,19.2c-7.8,4.5-15.5,9.1-23.4,13.4  c-2.4,1.3-3.6,3.6-3.9,5.7c-0.4,2.2-1.2,3.2-2.9,4.2c-7.8,4.4-15.6,8.8-23.3,13.5c-2.6,1.6-4.8,1.5-7.3,0c-1.9-1.2-3.9-2.3-5.8-3.4  C248,277.6,246.8,273.1,249.2,267.8z"
   class="st1" />
<path
   id="path68"
   d="M390,319.5c-0.1-1.8,1.1-2.5,2.5-3.3c25.2-14.5,50.4-29,75.5-43.7c1.6-0.9,2.6-0.8,3.9,0.1  c1.7,1.2,3.7,2.1,5.5,3.2c3.2,1.9,3.2,2.5,0,4.4c-12.6,7.3-25.2,14.6-37.9,21.9c-8.6,5-17.3,9.9-25.9,14.9c-2.3,0.3-4.2,1.7-5.9,3.1  c-5.3,4.4-10.4,4.8-15.7,0C391.5,319.7,390.8,319.3,390,319.5z"
   class="st2" />
<path
   id="path70"
   d="M316.5,282.8c4,1,7.1,3.5,10.5,5.6c1.9,1.1,3.3,1.1,5.1,0c40.2-23.3,80.5-46.5,120.7-69.8  c1.1-0.6,2.1-1.4,3.4-1c2.1,6.2,1,9.4-4.2,12.5c-1.8,1.1-3.7,2-5.5,3.2c-1.6,1.1-3,1-4.9,0.3c-2.1-0.7-4.4-0.9-6.7,0.4  c-6.2,3.7-12.5,7.3-18.7,10.9c-9.5,5.5-19,11-28.5,16.4c-9.5,5.5-19,10.9-28.5,16.3c-2.6,1.5-4.1,3.7-4.3,6.6  c-0.1,1.5-0.8,2.2-1.9,2.9c-7,4-14.1,8.1-21,12.2c-1.9,1.1-3.6,0.8-5.3-0.2c-3.1-1.8-6.3-3.6-9.4-5.4c-0.7-0.4-1.6-0.8-1.5-1.9  C316.1,288.9,315.1,285.7,316.5,282.8z"
   class="st1" />
<path
   id="path72"
   d="M359.3,283.5c-0.8-1-2-1.5,0.3-2.8c25.4-14.4,50.7-29.1,75.9-43.8c2.5-1.4,4.4-1.7,6.7,0  c1.7,1.3,3.6,2.2,5.5,3.2c1.2,0.6,2,1.4,1.3,2.9c-4-0.1-6.7,2.8-9.9,4.6c-22.9,13.1-45.7,26.3-68.5,39.6c-1.5,0.9-2.6,0.5-4.1-0.2  C364.2,285.7,362.4,283.3,359.3,283.5z"
   class="st2" />
<path
   id="path74"
   d="M295.6,265.5c-1.8-2.4,0.9-2.4,1.8-2.9c11.5-6.8,23-13.4,34.5-20.1c13.4-7.7,26.8-15.3,40.1-23.2  c2.7-1.6,4.6-1.7,7,0.1c1.8,1.3,3.8,2.3,5.8,3.4c1,0.6,1.6,1.2,0.7,2.3c-1.2-0.3-2.1,0.4-3.1,1c-24.4,14.1-48.8,28.2-73.1,42.3  c-2.8,1.6-5,2-7.8,0C299.8,267,298,265.3,295.6,265.5z"
   class="st2" />
<path
   id="path76"
   d="M170.3,172.5c25.8-14.9,51.6-29.8,77.4-44.8c2.1-1.2,3.9-1.4,5.7,0.2c2.3,2.1,6.2,2,7.4,5.4  c-1.2-0.1-2.1,0.7-3,1.3c-25,14.4-50.1,28.9-75.1,43.3c-0.8,0.5-1.7,1.7-2.6,1.1C176.8,176.8,172.6,176,170.3,172.5z"
   class="st2" />
<path
   id="path78"
   d="M266.2,227.3c0.5-1.5,1.8-2.3,3.1-3c24.9-14.3,49.7-28.6,74.5-43c2.2-1.3,3.7-1.4,5.7,0  c2.5,1.8,5.6,2.6,7.4,5.3c-2.8,1.5-5.7,3-8.5,4.6c-23.1,13.3-46.1,26.6-69.2,40c-2,1.2-3.5,1.2-5.5,0  C271.3,229.8,269,228,266.2,227.3z"
   class="st2" />
<path
   id="path80"
   d="M281.3,163.5c3.3,1.9,6.9,3.4,9.7,6.1c-0.5,0.5-1,1.1-1.6,1.4c-24.2,14-48.5,27.9-72.6,42.1  c-4.2,2.5-7.7,3.2-11.6-0.1c-1.2-1-2.6-1.9-4.3-2c0-2,1.7-2.4,2.9-3.1c25.6-14.8,51.2-29.6,76.8-44.3  C280.7,163.5,281,163.5,281.3,163.5z"
   class="st2" />
<path
   id="path82"
   d="M165.1,207c3.8,0.9,6.8,3.6,10.1,5.4c1.9,1.1,3.3,1.2,5.4,0c31.9-18.6,63.9-37,95.8-55.4  c5.5-3.2,11-6.3,16.6-9.4c1.1-0.6,2.3-1.1,2.9-2.3c2.8,4.5,1.4,11-2.8,13.5c-0.6,0.4-1.5,0.6-2,1.1c-3,3.2-6.9,2.2-10.4,1.8  c-1.8-0.2-2.8,0.3-4.1,1c-6.7,3.8-13.4,7.7-20.1,11.6c-10.2,5.9-20.2,12.1-30.6,17.7c-8.4,4.6-16.4,9.9-24.9,14.3  c-2.1,1.1-3.7,3-3.6,4.6c0.1,3.5-2.2,4.4-4.5,5.7c-4,2.3-8,4.6-12,7c-2,1.2-3.9,1.4-5.9,0.1c-1.9-1.2-3.9-2.3-5.8-3.4  C164,217,162.8,213.1,165.1,207z"
   class="st1" />
<path
   id="path84"
   d="M170.3,172.5c2.3,3.5,6.5,4.3,9.7,6.5c0.9,0.7,1.8-0.6,2.6-1.1c25-14.4,50.1-28.9,75.1-43.3  c1-0.6,1.8-1.4,3-1.3c0.9,2.9,0.2,5.9,0.4,8.9c0.1,1.6-1,2.1-2.1,2.7c-13.8,8-27.6,15.9-41.3,23.9c-2.7,1.6-4.2-0.4-6-1.4  c-1.7-0.9-3-1.5-3.3,1.2c-1.9,0.4-3.6,1.2-5.1,2.7c1.8,2.3,4.8,2.6,6.7,4.6c-2,1.6-3.9,3.5-7,1.9c-0.9-0.5-1.8,0.5-2.7,1  c-5.4,3.1-10.9,6.1-16.2,9.3c-2.7,1.7-4.9,1.4-7.9,0.1c-6-2.5-7.9-6.5-6.8-12.5C169.8,174.8,168.8,173.4,170.3,172.5z"
   class="st1" />
<path
   id="path86"
   d="M359.3,283.5c3-0.2,4.9,2.2,7.3,3.4c1.5,0.8,2.5,1.1,4.1,0.2c22.8-13.2,45.6-26.5,68.5-39.6  c3.1-1.8,5.9-4.7,9.9-4.6c2.4,4.6,1.2,9.4-2.9,11.7c-12.2,7-24.4,13.9-36.4,21.1c-2.7,1.6-4.8,2-7.3,0c-1.2-0.9-3.5-2.9-3.5,1.1  c-2.2-0.3-4.4,0.6-4.9,2.4c-0.4,1.6,2.2,1.8,3.4,2.7c0.8,0.6,1.6,1.1,2.4,1.7c-1.9,1.4-3.5,3.5-6.5,2.2c-1.3-0.6-2.3,0.6-3.4,1.2  c-5.8,3.3-11.7,6.6-17.4,10.1c-2.6,1.6-4.9,1.5-7.3,0.1c-1-0.6-1.9-1.1-2.9-1.7c-4.4-2.6-5.9-6.5-4.5-11.4  C358.1,283.3,358.7,283.3,359.3,283.5z"
   class="st1" />
<path
   id="path88"
   d="M266.2,227.3c2.8,0.7,5.1,2.5,7.5,4c1.9,1.2,3.5,1.2,5.5,0c23-13.4,46.1-26.7,69.2-40c2.8-1.6,5.7-3.1,8.5-4.6  c0.8,2.9,0.2,6,0.4,8.9c0.1,1.5-0.8,2.3-2,2.9c-10.2,5.9-20.5,11.8-30.7,17.8c-2.4,1.4-4,0.2-5.8-0.9c-1.5-1-3.2-2-4,0.8  c-2.2,0.5-3.9,1.8-5.6,3.1c1.7,2.1,4.9,2,5.8,4.8c-1.3,1.9-2.8,3-5.2,1.9c-1.6-0.7-2.9,0.4-4.1,1.2c-8.3,4.8-16.7,9.5-24.9,14.5  c-3.1,1.9-5.4,1.3-8.6,0c-6.4-2.5-7.4-7.1-6.6-13C265.7,228.2,266,227.7,266.2,227.3z"
   class="st1" />
<path
   id="path90"
   d="M200.8,210.9c1.7,0.1,3.1,1,4.3,2c3.9,3.3,7.4,2.6,11.6,0.1c24.1-14.2,48.4-28.1,72.6-42.1  c0.6-0.4,1.1-1,1.6-1.4c1.6,3.4,0.5,7,0.7,10.5c0,1.1-1.2,1.5-2.1,1.9c-2.8,1.6-5.8,3-8.3,4.9c-3,2.3-5.7,2.4-8.6,0  c-1.8-1.5-2.9-0.9-3.3,1.3c-2.3,0.5-4.3,1.7-6.1,3.3c1.8,2,4.7,2.2,6,4.5c-1.6,1.7-3.2,3-5.8,2.1c-1.5-0.5-2.6,0.5-3.8,1.2  c-14.7,8.5-29.4,16.9-44,25.4c-1.8,1-3.5,2.7-5.8,1.9c-3.4-1.2-7.4-2.6-9.2-5.4C199,218.3,199.5,214.3,200.8,210.9z"
   class="st1" />
<path
   id="path92"
   d="M295.6,265.5c2.5-0.1,4.2,1.6,5.9,2.8c2.8,2,5,1.7,7.8,0c24.3-14.2,48.8-28.2,73.1-42.3c1-0.6,1.9-1.3,3.1-1  c2.4,5.3,1.2,9.5-3.5,12.3c-1.7,1-3.5,1.9-5.1,3c-2.9,2.1-5.6,2.7-8.6,0.1c-1.4-1.2-3-1.6-3.2,1.2c-2.5,0.4-4.3,1.9-6.3,3.3  c1.6,2.2,4.6,2.1,5.7,4.5c-1,2.1-2.5,3.3-4.9,2.2c-1.7-0.8-2.9,0.3-4.1,1c-14.6,8.4-29.3,16.6-43.7,25.3c-4.7,2.8-8.4,3.1-12.9-0.1  C294.5,274.8,293,270.7,295.6,265.5z"
   class="st1" />

<path
   id="path96"
   d="M390,319.5c0.8-0.2,1.5,0.2,2.1,0.6c5.3,4.7,10.4,4.4,15.7,0c1.7-1.4,3.6-2.8,5.9-3.1c0.1,0.5,0.4,1.3,0.3,1.4  c-2.8,2-1.9,5-1.9,7.6c0,1.8-0.5,3.1-2.2,3.9c-1.8,0.9-3.4,2.1-5.2,2.9c-1.7,0.8-3,2.9-5.3,2.1c-3.6-1.2-7.6-2.7-9.6-5.5  C388,327,388.2,322.8,390,319.5z"
   class="st1" />
<path
   id="path98"
   d="M498,348.5c0.6,1.6,2.6,1.4,3.6,3.1c-3.8,3.2-8.5,5-12.7,7.8c-1.7-0.9-3.5-1.7-5.8-2.9  C488.5,353.7,492.7,350.2,498,348.5z"
   class="st2" />
<path
   id="path100"
   d="M364.5,249.4c-1.1-2.4-4.1-2.4-5.7-4.5c2-1.4,3.8-2.9,6.3-3.3c2.2,1.4,4.4,2.7,6.8,4.2  C369.6,247.5,367.6,249.5,364.5,249.4z"
   class="st2" />
<path
   id="path102"
   d="M269.3,195.9c-1.3-2.3-4.2-2.4-6-4.5c1.8-1.6,3.8-2.7,6.1-3.3c2.3,1.3,4.7,2.3,6.8,4.2  C273.8,193.8,272,195.6,269.3,195.9z"
   class="st2" />
<path
   id="path104"
   d="M315,224c-0.9-2.7-4.1-2.6-5.8-4.8c1.7-1.3,3.4-2.7,5.6-3.1c2.3,1.4,4.6,2.8,7.3,4.4  C319.6,222,317.7,223.9,315,224z"
   class="st2" />
<path
   id="path106"
   d="M399.9,283.7c-0.8-0.6-1.6-1.1-2.4-1.7c-1.2-0.9-3.8-1.1-3.4-2.7c0.5-1.8,2.7-2.7,4.9-2.4  c2.1,1.2,4.2,2.4,6.7,3.9C403.4,281.9,401.9,283.3,399.9,283.7z"
   class="st2" />
<path
   id="path108"
   d="M210.1,176c-1.9-1.9-4.9-2.3-6.7-4.6c1.4-1.4,3.1-2.3,5.1-2.7c2.2,1.3,4.4,2.6,6.9,4.1  C213.8,174.4,212.1,175.4,210.1,176z"
   class="st2" />
<path
   id="path110"
   d="M264.4,144.7c-0.4,0.6-1,1.1-1.8,0.6c-0.2-0.1-0.3-0.6-0.4-1c0.5-0.1,1.1-0.3,1.6-0.4  C264.1,144.2,264.3,144.4,264.4,144.7z"
   class="st3" />
<path
   id="path112"
   d="M293.1,181.1c-0.1,0.1-0.2,0.3-0.3,0.4c-0.1-0.1-0.2-0.2-0.2-0.2c0-0.2,0.2-0.3,0.2-0.5  C293,180.9,293,181,293.1,181.1z"
   class="st3" />
<path
   id="path114"
   d="M281.3,163.5c-0.3,0-0.5,0-0.8,0C280.7,162.8,281,162.8,281.3,163.5z"
   class="st1" />
<path
   id="path116"
   d="M467.3,180c-1.7-2.1,0.7-2.3,1.5-2.8c10.6-6.2,21.3-12.3,32-18.5c6.7-3.8,13.4-7.6,20-11.6c1.6-1,2.9-1,4.4-0.1  c13.3,7.8,26.7,15.5,40,23.2c0.9,0.5,1.7,1.4,2.6,2.1c0.1,0.3,0.1,0.6,0.2,1c0,0,0,0,0,0c-2,0.1-3.5,1.4-5,2.3  c-16.1,9.2-32.2,18.5-48.2,27.9c-1.9,1.1-3.3,1.2-5.1,0.1c-8.5-5-17-10-25.6-14.8C478.5,185.9,473.4,182,467.3,180z M525.1,169.2  c-1-2.2-2.9-3.5-5-2.4c-4.5,2.4-9.3,4.5-13.1,8c-1.4-0.1-3.4-0.8-2.9,1.7c0.4,2,8,4.2,10,3.1c5.4-3.1,10.9-6.2,16-9.2  C528.7,169.9,527.1,168.6,525.1,169.2z"
   class="st2" />
<path
   id="path118"
   d="M467.3,180c6.1,2,11.2,5.9,16.7,9c8.6,4.8,17.1,9.8,25.6,14.8c1.9,1.1,3.2,1,5.1-0.1  c16-9.4,32.1-18.7,48.2-27.9c1.6-0.9,3.1-2.2,5-2.3c2.3,6.7,1.1,9.9-4.9,13.3c-16.1,9.2-32.2,18.5-48.2,27.9c-2.1,1.3-3.8,1.2-5.8,0  c-13.2-7.7-26.5-15.3-39.8-23C465.9,189.7,465.1,184.6,467.3,180z"
   class="st1" />
<path
   id="path120"
   d="M453.9,168.8c0-1.5,0.8-2.3,2.2-3.1c16.1-9.2,32.1-18.4,48.1-27.8c2.1-1.3,3.7-1.2,5.7,0.1  c3.1,2,6.4,3.8,9.9,5.9c-3.7,3.1-7.8,4.9-11.6,7.1c-13.7,8-27.4,15.9-41.1,23.8c-0.4,0.2-0.9,0.3-1.4,0.5  C462,172.7,458.4,170,453.9,168.8z"
   class="st2" />
<path
   id="path122"
   d="M453.9,168.8c4.4,1.2,8.1,3.9,11.8,6.4c-0.6,2.9-3.3,5.2-2.2,8.6C454.8,182.2,450.8,175.8,453.9,168.8z"
   class="st1" />
<path
   id="path124"
   d="M568,173.4c-0.1-0.3-0.1-0.6-0.2-1C568.5,172.6,568.8,172.9,568,173.4z"
   class="st1" />
<path
   id="path126"
   d="M525.1,169.2c2-0.6,3.6,0.7,5,1.3c-5.2,3-10.6,6.1-16,9.2c-1.9,1.1-9.5-1.1-10-3.1c-0.5-2.5,1.5-1.9,2.9-1.7  c2.6,2.8,5.3,3.5,8.6,0.8C518.5,173.3,522.7,172.6,525.1,169.2z"
   class="st0" />
<path
   id="path128"
   d="M525.1,169.2c-2.4,3.3-6.6,4.1-9.5,6.5c-3.3,2.7-5.9,2-8.6-0.8c3.9-3.5,8.6-5.6,13.1-8  C522.2,165.7,524.1,167,525.1,169.2z"
   class="st1" />

</svg>
